<?xml version="1.0" encoding="UTF-8"?>
<svg id="Camada_1" data-name="Camada 1" xmlns="http://www.w3.org/2000/svg" viewBox="0 0 670.07 682.76">
  <defs>
    <style>
      .cls-1 {
        fill: #fcc10a;
      }

      .cls-1, .cls-2, .cls-3 {
        stroke: #14212d;
        stroke-miterlimit: 10;
        stroke-width: .25px;
      }

      .cls-4 {
        fill: none;
        stroke-width: 0px;
      }

      .cls-2 {
        fill: #ec613a;
      }

      .cls-3 {
        fill: #36a9e1;
      }
    </style>
  </defs>
  <ellipse class="cls-4" cx="335.04" cy="341.38" rx="335.04" ry="341.38"/>
  <g>
    <path class="cls-3" d="M116.79,140.21l-39.75,33.73c-.34.35-.54.96-.58,1.74v86.71c-.1,2.02.9,4.64,2.23,5.85l52.13,44.53c1.33,1.21,2.48.55,2.58-1.47l2.39-49.69c.04-.83.27-1.47.64-1.81l9.92-8.91c.5-.45,1.21-.32,1.94.34l85.64,78.15c1.02.93,1.97.78,2.38-.35l20.94-57.61c.68-1.87-.36-5.43-2.03-6.95l-136.44-123.98c-.76-.69-1.5-.79-2-.28Z"/>
    <path class="cls-3" d="M101.1,466.16l-24.26-84.83c-.28-.91-.41-1.82-.37-2.6v-89.1c.09-2.03,1.24-2.69,2.57-1.48l50.83,44.21c1.33,1.21,2.33,3.82,2.23,5.84l-2.39,49.74c-.04.83.11,1.81.42,2.78l8.26,25.45c.42,1.28,1.08,2.41,1.81,3.07l85.66,77.59c1.02.92,1.88,2.71,2.15,4.48l13.87,89.33c.45,2.9-.83,4.36-2.5,2.84l-136.43-124.09c-.76-.69-1.45-1.89-1.86-3.23Z"/>
    <path class="cls-1" d="M605.67,499.31c-.04.76-.3,1.57-.8,2.27l-33.39,39.52c-.69,1.01-1.75,1.75-2.85,1.94l-282.53,51.75c-2.83.52-4.3-2.59-2.5-5.3l55.72-84.19c.67-1.04,1.73-1.79,2.85-1.98l182.21-32.13c1.05-.17,2.07-.86,2.76-1.83l13.97-19.53c.52-.7.83-1.57.87-2.4l2.39-49.68c.02-.49.16-.99.34-1.47l3.62-75.17c.04-.85-.19-1.58-.65-2.14l-12.12-14.85c-.65-.79-1.62-1.09-2.69-.92l-187.65,33.72c-1.14.21-2.15-.18-2.75-.99l-46.65-64.53c-.29-.41-.47-.85-.51-1.32-.35-2.06,1.29-4.55,3.57-4.93l285.51-50.85c1.1-.19,2.15.18,2.75,1.01l28.91,59.29c.4.55.63,1.26.59,2.02l-10.97,222.68Z"/>
    <path class="cls-1" d="M269.05,588.72l51.89-80.49c.45-.69.71-1.47.74-2.23l7.71-164.46c.04-.78-.17-1.5-.58-2.05l-47-62.42c-1.87-2.48-6.21-.21-6.36,3.32l-12.59,307.38c-.15,3.54,4.11,4.21,6.2.97Z"/>
    <polygon class="cls-2" points="131.89 128.05 273.19 250.9 580.58 195.44 570.34 173.66 479.62 103.21 438.8 72.11 142.22 110.6 131.89 128.05"/>
  </g>
</svg>